<?xml version="1.0" standalone="no"?>
<!DOCTYPE svg PUBLIC "-//W3C//DTD SVG 20010904//EN"
 "http://www.w3.org/TR/2001/REC-SVG-20010904/DTD/svg10.dtd">
<svg version="1.0" xmlns="http://www.w3.org/2000/svg"
 width="1200.000000pt" height="486.000000pt" viewBox="0 0 1200.000000 486.000000"
 preserveAspectRatio="xMidYMid meet">

<g transform="translate(0.000000,486.000000) scale(0.100000,-0.100000)"
fill="#000000" stroke="none">
<path d="M825 3431 c-91 -41 -156 -158 -141 -253 37 -231 347 -282 451 -75 47
95 30 203 -45 277 -69 70 -178 91 -265 51z"/>
<path d="M1246 3414 c-22 -22 -24 -385 -2 -403 9 -8 74 -11 212 -9 l199 3 3
199 c2 138 -1 203 -9 212 -18 22 -381 20 -403 -2z"/>
<path d="M1771 3416 c-8 -9 -11 -74 -9 -212 l3 -199 199 -3 c138 -2 203 1 212
9 11 9 14 53 14 205 0 181 -1 194 -19 204 -12 6 -96 10 -204 10 -145 0 -187
-3 -196 -14z"/>
<path d="M717 2893 c-13 -12 -8 -398 5 -411 9 -9 68 -12 205 -12 180 0 193 1
203 19 15 29 13 384 -2 399 -13 13 -399 18 -411 5z"/>
<path d="M1242 2888 c-9 -9 -12 -65 -12 -199 0 -157 3 -190 16 -203 22 -22
385 -24 403 -2 8 9 11 74 9 212 l-3 199 -200 3 c-148 2 -204 -1 -213 -10z"/>
<path d="M2470 2635 l0 -165 35 0 35 0 0 165 0 165 -35 0 -35 0 0 -165z"/>
<path d="M2620 2635 l0 -165 30 0 30 0 0 118 c1 136 -3 137 86 -20 l55 -98 45
0 44 0 0 165 0 165 -30 0 -29 0 -3 -120 -3 -119 -68 119 -68 120 -45 0 -44 0
0 -165z"/>
<path d="M3034 2790 c-46 -18 -68 -85 -44 -131 6 -11 36 -33 66 -51 61 -34 73
-50 53 -74 -13 -16 -49 -15 -107 2 -22 6 -23 4 -20 -27 3 -29 8 -34 38 -41 42
-10 109 -2 131 15 22 17 39 51 39 80 0 34 -29 66 -86 97 -39 20 -49 31 -49 50
0 20 6 26 28 28 16 2 41 -1 57 -6 26 -10 29 -8 39 18 9 26 7 29 -21 39 -36 13
-94 13 -124 1z"/>
<path d="M3220 2771 c0 -28 3 -30 43 -33 l42 -3 3 -132 3 -133 34 0 35 0 0
135 0 135 40 0 c38 0 40 2 40 30 l0 30 -120 0 -120 0 0 -29z"/>
<path d="M3520 2635 l0 -165 30 0 30 0 0 165 0 165 -30 0 -30 0 0 -165z"/>
<path d="M3640 2770 c0 -28 2 -30 40 -30 l40 0 0 -135 0 -135 35 0 34 0 3 133
3 132 43 3 c39 3 42 5 42 33 l0 29 -120 0 -120 0 0 -30z"/>
<path d="M3930 2678 c0 -133 7 -158 52 -191 33 -25 108 -28 156 -8 52 22 62
53 62 196 l0 125 -35 0 -35 0 0 -120 c0 -107 -2 -122 -20 -140 -11 -11 -31
-20 -45 -20 -14 0 -34 9 -45 20 -18 18 -20 33 -20 140 l0 120 -35 0 -35 0 0
-122z"/>
<path d="M4250 2771 c0 -28 3 -30 43 -33 l42 -3 3 -132 3 -133 34 0 35 0 0
135 0 135 46 0 c44 0 45 1 42 28 l-3 27 -122 3 -123 3 0 -30z"/>
<path d="M4610 2782 c-51 -25 -74 -73 -74 -151 0 -112 50 -165 154 -165 104 0
154 56 153 171 -1 106 -55 163 -153 163 -25 0 -61 -8 -80 -18z m139 -68 c25
-32 28 -111 6 -154 -27 -52 -115 -48 -135 5 -6 15 -10 48 -10 74 0 66 27 101
80 101 30 0 43 -6 59 -26z"/>
<path d="M5037 2793 c-4 -3 -7 -78 -7 -165 l0 -158 35 0 34 0 3 63 3 62 53 3
c47 3 52 5 52 27 0 22 -5 24 -52 27 l-53 3 0 40 0 40 58 3 c56 3 57 4 57 32
l0 30 -88 0 c-49 0 -92 -3 -95 -7z"/>
<path d="M5290 2635 l0 -165 96 0 95 0 -3 28 c-3 26 -6 27 -60 30 l-58 3 0 39
0 40 55 0 c54 0 55 0 55 30 0 30 -1 30 -55 30 l-55 0 0 35 0 35 61 0 c60 0 60
0 57 28 l-3 27 -92 3 -93 3 0 -166z"/>
<path d="M5548 2794 c-5 -4 -8 -79 -8 -166 l0 -158 75 0 c143 0 201 49 199
168 -1 70 -19 104 -71 135 -33 19 -182 35 -195 21z m151 -69 c35 -17 41 -32
41 -96 0 -66 -30 -99 -90 -99 l-40 0 0 98 c0 54 3 102 7 105 11 12 53 8 82 -8z"/>
<path d="M5887 2793 c-4 -3 -7 -78 -7 -165 l0 -158 95 0 95 0 0 30 0 30 -61 0
-60 0 3 38 3 37 53 3 c50 3 52 4 52 33 0 29 -1 29 -56 29 l-55 0 3 33 c3 32 4
32 61 35 56 3 57 4 57 32 l0 30 -88 0 c-49 0 -92 -3 -95 -7z"/>
<path d="M6140 2635 l0 -165 35 0 35 0 0 60 c0 53 2 60 19 60 13 0 32 -20 57
-60 35 -57 39 -60 77 -60 l39 0 -18 28 c-10 15 -30 44 -46 66 l-28 39 30 34
c36 41 39 82 7 118 -24 29 -78 44 -159 45 l-48 0 0 -165z m138 89 c12 -8 22
-20 22 -26 0 -22 -34 -48 -62 -48 -27 0 -28 2 -28 45 0 40 2 45 23 45 12 0 33
-7 45 -16z"/>
<path d="M6506 2758 c-40 -109 -96 -272 -96 -280 0 -5 16 -8 36 -6 32 3 38 8
48 38 11 35 11 35 71 35 l59 0 9 -37 c9 -36 11 -38 49 -38 28 0 39 4 35 13 -2
6 -28 81 -58 165 l-54 152 -42 0 c-40 0 -42 -2 -57 -42z m93 -140 c1 -14 -7
-18 -32 -18 -19 0 -36 3 -39 6 -4 3 3 33 15 67 l20 62 18 -50 c10 -28 18 -58
18 -67z"/>
<path d="M6767 2793 c-4 -3 -7 -78 -7 -165 l0 -158 106 0 105 0 -3 28 c-3 26
-5 27 -70 30 l-68 3 0 134 0 135 -28 0 c-16 0 -32 -3 -35 -7z"/>
<path d="M722 2368 c-9 -9 -12 -69 -12 -210 l0 -198 26 -10 c14 -6 101 -10
192 -10 136 0 172 3 190 16 21 15 22 20 22 204 0 158 -3 191 -16 204 -13 13
-46 16 -203 16 -132 0 -191 -4 -199 -12z"/>
<path d="M1246 2364 c-13 -13 -16 -46 -16 -204 0 -184 1 -189 22 -204 18 -13
54 -16 190 -16 91 0 178 4 192 10 l26 10 0 198 c0 141 -3 201 -12 210 -8 8
-67 12 -199 12 -157 0 -190 -3 -203 -16z"/>
<path d="M1772 2368 c-9 -9 -12 -69 -12 -210 l0 -198 26 -10 c14 -6 101 -10
192 -10 136 0 172 3 190 16 21 15 22 20 22 204 0 158 -3 191 -16 204 -13 13
-46 16 -203 16 -132 0 -191 -4 -199 -12z"/>
<path d="M5080 2348 c-11 -12 -20 -28 -20 -35 0 -16 32 -17 48 -1 9 9 18 9 37
0 38 -18 73 -15 85 7 22 43 5 67 -26 37 -12 -13 -19 -13 -49 0 -45 18 -51 18
-75 -8z"/>
<path d="M6447 2342 c-15 -15 -27 -31 -27 -35 0 -13 45 -7 68 9 21 14 25 14
47 0 13 -9 36 -16 50 -16 l26 0 -28 35 c-24 30 -34 35 -69 35 -31 0 -46 -6
-67 -28z"/>
<path d="M4217 2266 c-20 -7 -43 -19 -51 -25 -46 -39 -62 -167 -28 -231 23
-43 73 -70 129 -70 62 0 93 15 93 45 0 24 -1 25 -57 19 -49 -5 -62 -3 -83 14
-22 18 -25 28 -25 87 0 61 2 69 29 92 29 25 46 26 102 8 15 -5 23 0 32 19 10
22 9 27 -7 35 -33 18 -95 21 -134 7z"/>
<path d="M4827 2266 c-20 -8 -43 -19 -51 -25 -46 -39 -62 -167 -28 -231 10
-19 34 -43 53 -53 20 -10 33 -23 31 -32 -2 -9 4 -18 13 -21 25 -10 18 -34 -10
-34 -30 0 -34 -26 -6 -35 29 -9 70 5 82 27 13 23 4 54 -19 63 -12 5 -5 10 28
19 39 9 45 15 48 39 3 28 3 28 -42 22 -25 -4 -57 -4 -71 -1 -61 15 -75 147
-20 194 28 23 46 25 101 7 15 -5 23 0 32 20 7 14 12 27 12 29 0 5 -86 26 -102
26 -7 -1 -30 -7 -51 -14z"/>
<path d="M5436 2270 c-63 -20 -96 -76 -96 -162 0 -66 24 -115 70 -146 29 -20
45 -23 93 -20 36 3 67 12 85 24 82 61 84 226 2 286 -30 21 -113 31 -154 18z
m111 -74 c24 -21 27 -31 28 -84 0 -50 -4 -65 -24 -86 -30 -32 -82 -35 -110 -7
-42 42 -39 146 6 181 34 26 66 25 100 -4z"/>
<path d="M6069 2271 c-48 -15 -69 -32 -90 -73 -18 -34 -21 -54 -17 -108 6 -76
25 -111 73 -134 37 -18 101 -21 139 -6 19 7 26 17 26 35 0 25 -2 26 -45 19
-25 -3 -56 -3 -70 0 -61 15 -75 147 -20 194 28 23 46 25 101 7 15 -5 23 0 32
20 7 14 12 27 12 29 0 5 -86 26 -102 25 -7 0 -25 -4 -39 -8z"/>
<path d="M7142 2270 c-70 -17 -102 -70 -102 -167 0 -109 48 -163 142 -163 70
0 88 9 88 40 l0 28 -58 -5 c-55 -5 -60 -4 -80 22 -30 38 -31 121 -2 158 27 34
52 41 96 27 40 -14 40 -14 49 22 5 20 3 27 -12 32 -40 11 -90 14 -121 6z"/>
<path d="M8929 2271 c-73 -23 -109 -77 -109 -166 0 -103 56 -165 148 -165 62
0 92 15 92 45 0 25 -2 26 -45 19 -25 -3 -56 -3 -70 0 -61 15 -75 147 -20 194
28 23 46 25 101 7 15 -5 23 0 32 20 7 14 12 27 12 29 0 5 -86 26 -102 25 -7 0
-25 -4 -39 -8z"/>
<path d="M9586 2270 c-65 -20 -96 -73 -96 -162 0 -77 22 -124 71 -150 67 -36
169 -15 212 43 11 15 21 50 24 86 7 76 -20 144 -66 167 -39 21 -107 28 -145
16z m101 -65 c47 -33 50 -138 7 -186 -38 -42 -115 -14 -130 46 -25 101 53 189
123 140z"/>
<path d="M10205 2265 c-22 -8 -48 -24 -57 -36 -42 -51 -47 -159 -10 -223 51
-88 213 -87 265 2 23 40 25 148 2 195 -29 62 -122 91 -200 62z m115 -65 c26
-26 34 -60 27 -118 -9 -79 -80 -110 -132 -57 -21 20 -25 34 -25 85 0 51 4 65
25 85 30 31 77 33 105 5z"/>
<path d="M10590 2269 c-97 -29 -140 -151 -90 -255 29 -58 72 -78 160 -72 37 3
72 8 79 12 7 5 11 39 11 92 l0 84 -65 0 -65 0 0 -30 c0 -27 3 -30 30 -30 28 0
30 -3 30 -35 0 -34 -1 -35 -38 -35 -58 0 -87 35 -87 107 0 50 3 57 34 85 28
25 40 29 70 25 20 -3 43 -8 52 -12 12 -4 19 2 27 24 8 23 7 31 -4 35 -31 12
-111 15 -144 5z"/>
<path d="M2470 2105 l0 -165 50 0 c27 0 72 5 99 11 86 18 131 92 118 191 -12
88 -71 128 -189 128 l-78 0 0 -165z m155 99 c22 -9 45 -57 45 -94 0 -63 -45
-110 -105 -110 -25 0 -25 0 -25 105 l0 105 34 0 c19 0 42 -3 51 -6z"/>
<path d="M2810 2105 l0 -165 95 0 95 0 0 30 0 30 -60 0 -60 0 0 45 0 45 55 0
c52 0 55 1 55 25 0 24 -3 25 -55 25 l-55 0 0 35 0 35 60 0 60 0 0 30 0 30 -95
0 -95 0 0 -165z"/>
<path d="M3190 2105 l0 -166 93 3 92 3 3 28 c3 27 3 27 -57 27 l-61 0 0 45 0
45 55 0 c52 0 55 1 55 25 0 24 -3 25 -55 25 l-55 0 0 35 0 34 58 3 c54 3 57 4
60 31 l3 27 -95 0 -96 0 0 -165z"/>
<path d="M3442 2108 l3 -163 83 2 c132 2 185 49 185 163 0 114 -55 160 -191
160 l-82 0 2 -162z m177 76 c15 -19 21 -41 21 -75 0 -65 -30 -101 -86 -103
l-39 -1 -3 103 -3 102 45 0 c36 0 48 -5 65 -26z"/>
<path d="M3780 2155 c0 -139 13 -179 64 -200 72 -30 167 -8 193 45 8 16 13 70
13 148 l0 122 -35 0 -35 0 0 -118 c0 -133 -8 -152 -68 -152 -51 0 -62 27 -62
157 l0 113 -35 0 -35 0 0 -115z"/>
<path d="M4489 2243 c-28 -71 -99 -281 -99 -292 0 -6 15 -11 35 -11 31 0 35 3
46 40 l12 41 60 -3 c59 -3 61 -4 72 -38 10 -31 16 -35 50 -38 28 -3 36 0 33
10 -3 7 -29 82 -58 166 l-53 152 -44 0 c-38 0 -45 -3 -54 -27z m88 -160 c-3
-2 -21 -3 -40 -1 l-35 3 21 65 20 65 19 -64 c11 -34 17 -65 15 -68z"/>
<path d="M5101 2248 c-35 -94 -101 -286 -101 -296 0 -7 14 -12 35 -12 31 0 35
3 46 40 l12 41 60 -3 c59 -3 61 -4 72 -38 10 -31 16 -35 50 -38 28 -3 36 0 33
10 -3 7 -28 82 -58 166 l-52 152 -44 0 c-37 0 -46 -4 -53 -22z m86 -165 c-3
-2 -21 -3 -40 -1 l-35 3 21 65 20 65 19 -64 c11 -34 17 -65 15 -68z"/>
<path d="M6270 2104 l0 -165 33 3 32 3 3 163 2 162 -35 0 -35 0 0 -166z"/>
<path d="M6420 2105 l0 -166 93 3 92 3 3 28 c3 27 3 27 -57 27 l-61 0 0 45 0
45 55 0 c52 0 55 1 55 25 0 24 -3 25 -55 25 l-55 0 0 35 0 34 58 3 c54 3 57 4
60 31 l3 27 -95 0 -96 0 0 -165z"/>
<path d="M6680 2105 l0 -165 31 0 30 0 -3 121 c-3 139 -9 140 83 -19 l60 -103
42 3 42 3 3 163 2 162 -36 0 -36 0 3 -114 c2 -63 1 -112 -2 -110 -4 2 -35 53
-70 114 l-63 110 -43 0 -43 0 0 -165z"/>
<path d="M7340 2105 l0 -165 35 0 35 0 0 165 0 165 -35 0 -35 0 0 -165z"/>
<path d="M7559 2243 c-32 -84 -99 -279 -99 -290 0 -8 13 -13 35 -13 32 0 35 3
45 40 l11 41 61 -3 c60 -3 61 -4 73 -38 10 -31 16 -35 50 -38 28 -3 36 0 33
10 -3 7 -29 82 -58 166 l-53 152 -44 0 c-38 0 -45 -3 -54 -27z m88 -160 c-3
-2 -21 -3 -40 -1 l-35 3 21 65 20 65 19 -64 c11 -34 17 -65 15 -68z"/>
<path d="M7932 2108 l3 -163 93 -3 92 -3 0 31 0 30 -61 0 -60 0 3 43 3 42 53
3 c47 3 52 5 52 27 0 22 -5 24 -52 27 -52 3 -53 4 -56 36 l-3 32 60 0 61 0 0
30 0 30 -95 0 -95 0 2 -162z"/>
<path d="M8280 2240 c0 -29 2 -30 45 -30 l45 0 0 -136 0 -135 33 3 32 3 3 132
3 132 42 3 c38 3 42 6 45 31 l3 27 -125 0 -126 0 0 -30z"/>
<path d="M8580 2105 l0 -166 93 3 92 3 3 28 c3 27 3 27 -57 27 l-61 0 0 45 0
45 55 0 c52 0 55 1 55 25 0 24 -3 25 -55 25 l-55 0 0 35 0 34 58 3 c54 3 57 4
60 31 l3 27 -95 0 -96 0 0 -165z"/>
<path d="M9130 2105 l0 -165 30 0 30 0 0 122 0 123 71 -123 70 -122 45 0 44 0
0 165 0 165 -30 0 -30 0 0 -117 c-1 -137 3 -138 -86 19 l-56 98 -44 0 -44 0 0
-165z"/>
<path d="M9870 2105 l0 -165 100 0 100 0 0 30 0 30 -65 0 -65 0 0 135 0 135
-35 0 -35 0 0 -165z"/>
<path d="M10830 2104 l0 -165 33 3 32 3 3 163 2 162 -35 0 -35 0 0 -166z"/>
<path d="M11050 2267 c0 -2 -25 -73 -55 -158 -30 -85 -55 -158 -55 -162 0 -5
17 -7 38 -5 34 3 38 6 46 41 l10 37 61 0 62 0 12 -40 c11 -37 15 -40 46 -40
22 0 35 5 34 13 0 6 -24 80 -53 162 l-53 150 -47 3 c-25 2 -46 1 -46 -1z m70
-126 l18 -61 -39 0 c-21 0 -39 3 -39 7 0 16 33 123 37 119 2 -2 13 -31 23 -65z"/>
<path d="M5704 1945 l-10 -55 27 0 c23 0 29 7 43 47 21 62 21 63 -17 63 -32 0
-33 -2 -43 -55z"/>
<path d="M723 1843 c-18 -7 -18 -394 -1 -411 17 -17 389 -17 406 0 17 17 17
389 0 406 -9 9 -67 12 -203 11 -104 0 -196 -3 -202 -6z"/>
<path d="M1242 1838 c-17 -17 -17 -389 0 -406 17 -17 389 -17 406 0 9 9 12 69
12 209 0 170 -2 198 -16 203 -31 12 -389 7 -402 -6z"/>
<path d="M3596 1750 c-23 -36 -24 -40 -8 -40 20 0 72 49 72 68 0 27 -39 10
-64 -28z"/>
<path d="M2570 1759 c-72 -22 -110 -81 -110 -175 0 -66 21 -116 61 -145 54
-38 189 -34 189 5 0 12 -11 13 -55 9 -74 -8 -112 9 -136 61 -31 69 -19 146 28
189 27 23 84 32 122 19 26 -9 32 -8 41 8 7 13 6 19 -4 23 -31 12 -104 15 -136
6z"/>
<path d="M2814 1661 c-77 -47 -70 -197 11 -235 55 -26 145 -15 145 18 0 11
-12 13 -57 9 -66 -6 -97 11 -109 60 l-6 27 91 0 91 0 0 30 c0 90 -88 139 -166
91z m101 -36 c43 -42 34 -55 -39 -55 -36 0 -68 5 -71 10 -8 13 49 70 70 70 9
0 27 -11 40 -25z"/>
<path d="M3083 1670 c-13 -5 -23 -17 -23 -26 0 -12 6 -15 23 -10 75 22 104 13
109 -34 3 -21 -2 -25 -27 -28 -67 -6 -97 -14 -116 -33 -23 -23 -25 -81 -3
-103 32 -33 100 -32 137 1 15 15 17 15 17 0 0 -10 7 -17 15 -17 12 0 15 19 15
108 0 74 -4 114 -13 126 -16 22 -99 31 -134 16z m112 -157 c-4 -16 -12 -34
-18 -41 -33 -41 -107 -32 -107 12 0 34 35 56 88 56 43 0 44 -1 37 -27z"/>
<path d="M3376 1654 c-25 -26 -26 -26 -26 -5 0 12 -6 21 -15 21 -13 0 -15 -21
-15 -125 0 -99 3 -125 14 -125 10 0 15 22 18 85 4 72 8 89 28 110 14 15 35 25
52 25 21 0 28 5 28 20 0 30 -51 27 -84 -6z"/>
<path d="M3548 1667 c-20 -9 -25 -16 -19 -26 7 -11 15 -11 45 -1 31 10 41 9
61 -4 16 -10 25 -26 25 -41 0 -23 -4 -25 -42 -25 -90 0 -146 -55 -117 -116 21
-43 78 -55 130 -27 30 17 39 18 39 7 0 -8 7 -14 15 -14 12 0 15 19 15 109 0
106 -1 110 -26 130 -30 24 -84 27 -126 8z m112 -151 c0 -55 -73 -93 -110 -56
-37 37 -1 80 67 80 39 0 43 -2 43 -24z"/>
</g>
</svg>
